<svg width="85" height="83" viewBox="0 0 85 83" fill="none" xmlns="http://www.w3.org/2000/svg">
<g filter="url(#filter0_d_44_74)">
<ellipse cx="37.5" cy="36.5" rx="32.5" ry="31.5" fill="black"/>
<path d="M47.127 24.2771C46.9239 23.4793 46.1045 22.9991 45.2967 23.2047L32.1328 26.5546C31.325 26.7601 30.8347 27.5736 31.0377 28.3714C31.2407 29.1693 32.0602 29.6494 32.868 29.4438L44.5693 26.4662L47.5102 38.0232C47.7133 38.821 48.5327 39.3011 49.3405 39.0956C50.1483 38.89 50.6386 38.0766 50.4356 37.2787L47.127 24.2771ZM32.1019 50.057L46.9585 25.4076L44.3701 23.891L29.5135 48.5404L32.1019 50.057Z" fill="white"/>
</g>
<defs>
<filter id="filter0_d_44_74" x="0" y="0" width="85" height="83" filterUnits="userSpaceOnUse" color-interpolation-filters="sRGB">
<feFlood flood-opacity="0" result="BackgroundImageFix"/>
<feColorMatrix in="SourceAlpha" type="matrix" values="0 0 0 0 0 0 0 0 0 0 0 0 0 0 0 0 0 0 127 0" result="hardAlpha"/>
<feOffset dx="5" dy="5"/>
<feGaussianBlur stdDeviation="5"/>
<feComposite in2="hardAlpha" operator="out"/>
<feColorMatrix type="matrix" values="0 0 0 0 0 0 0 0 0 0 0 0 0 0 0 0 0 0 0.15 0"/>
<feBlend mode="normal" in2="BackgroundImageFix" result="effect1_dropShadow_44_74"/>
<feBlend mode="normal" in="SourceGraphic" in2="effect1_dropShadow_44_74" result="shape"/>
</filter>
</defs>
</svg>
